# xmcd CD database file
#
# Track frame offsets:
#	150
#	29567
#	51239
#	67465
#	87033
#	104252
#	122615
#	139561
#	164833
#	182152
#	195363
#	221812
#	237902
#	253678
#	277444
#	291182
#	309326
#	329594
#	340436
#
# Disc length: 4796 seconds
#
# Revision: 0
# Processed by: cddbd v1.5.2PL0 Copyright (c) Steve Scherf et al.
# Submitted via: CDex 1.70beta2
#
DISCID=3712ba13
DTITLE=Various Artist - Best Audiophile Voices V
DYEAR=1900
DGENRE=New Age
TTITLE0=Alison Krauss and Natalie Mac Master - Get me through December
TTITLE1=Noon - 500 miles
TTITLE2=Emi Fujita - The rose
TTITLE3=Stacey Kent - You've got a friend
TTITLE4=Salena Jones - I don't want to miss a thing
TTITLE5=Janet Seidel - You belong to me
TTITLE6=Emilie-Claire Barlow - Blame it on my youth
TTITLE7=Eva Cassidy - Bridge over troubled water
TTITLE8=Lee Lessack and Susan Egan - The look of love
TTITLE9=Marianna Leporace - Bizarre love triangle
TTITLE10=Roberta Gambarini - Smoke gets in your eyes - All the things you are
TTITLE11=Jheena Lodwick - A groovy kind of love
TTITLE12=Marcela - Loving you
TTITLE13=Kimber Manning - What a wonderful world
TTITLE14=Ilona Knopfler - Alfie 
TTITLE15=Jane Monheit - Over the Rainbow
TTITLE16=Carol Kidd - When I Dream
TTITLE17=Monica Mancini - Skylark
TTITLE18=Alison Krauss - I wouldnt have made a difference
EXTD=
EXTT0=
EXTT1=
EXTT2=
EXTT3=
EXTT4=
EXTT5=
EXTT6=
EXTT7=
EXTT8=
EXTT9=
EXTT10=
EXTT11=
EXTT12=
EXTT13=
EXTT14=
EXTT15=
EXTT16=
EXTT17=
EXTT18=
PLAYORDER=
